<svg id="Capa_1" enable-background="new 0 0 512 512" height="512" viewBox="0 0 512 512" width="512" xmlns="http://www.w3.org/2000/svg"><g><g><circle cx="256" cy="256" fill="#f9f8f9" r="229.766"/><g><ellipse cx="296.17" cy="100.808" fill="#91dafa" rx="21.633" ry="26.5"/></g><g><g><path d="m323 432.5h-59.5l-7.5-4-7.5 4h-59.5v-75h134z" fill="#df646e"/></g><g><g><g><path d="m250.043 359.17c2.15-2.279 4.685-10.6 7.499-12.042 3.753-1.923 8.002-3.011 12.501-3.011h28.5c.552 0 1 .448 1 1v59l-4.202 4.5c-4.78 0-36.596-3.745-44.593 10.471-.05.047-.318.288-.727.274-.376-.013-.615-.234-.67-.287-2.004-1.969-5.923-5.24-11.776-6.924-2.85-.82-5.432-1.033-7.531-1.033l-18.957-.457-.19-43.306 4.647-23.236h14.5c4.499 0 8.748 1.088 12.501 3.011 2.812 1.44 7.498 12.04 7.498 12.04z" fill="#e8e8e8"/></g></g></g></g><g><g><path d="m373.793 227.493h23.361v60.295h-23.361z" fill="#857e87" transform="matrix(.707 .707 -.707 .707 295.082 -197.11)"/><path d="m353.665 243.537h51.523v14.142h-51.523z" fill="#766e7a" transform="matrix(.707 -.707 .707 .707 -66.075 341.699)"/></g><g><path d="m437.573 236.908-31.719-31.719c-3.905-3.905-9.758-5.754-13.663-1.848l-5.657 5.657c-3.905 3.905-5.507 7.35-1.602 11.255l34.648 34.648c3.905 3.905 11.359 2.783 15.264-1.122l2.728-2.728c3.907-3.906 3.907-10.238.001-14.143z" fill="#766e7a"/><path d="m398.176 217.109c-1.172-1.172-1.172-3.071 0-4.243l7.678-7.678-2.929-2.929c-3.905-3.905-10.237-3.905-14.142 0l-5.657 5.657c-3.905 3.905-3.905 10.237 0 14.142l34.648 34.648c3.905 3.905 10.237 3.905 14.142 0l2.929-2.929z" fill="#665f6d"/></g><g><path d="m384.54 289.941-31.719-31.719c-3.905-3.905-10.11-5.32-14.015-1.414l-5.657 5.657c-3.905 3.905-4.735 7.454-.83 11.36l34.085 33.389c3.905 3.905 11.503 3.504 15.408-.402l2.728-2.728c3.906-3.906 3.906-10.238 0-14.143z" fill="#766e7a"/><path d="m345.144 270.142c-1.172-1.172-1.172-3.071 0-4.243l7.677-7.678-2.929-2.929c-3.905-3.905-10.237-3.905-14.142 0l-5.657 5.657c-3.905 3.905-3.905 10.237 0 14.142l34.648 34.648c3.905 3.905 10.237 3.905 14.142 0l2.929-2.929z" fill="#665f6d"/></g></g><g><path d="m151.5 308.021-61.989-.383c-5.523 0-10-4.477-10-10l-.171-88.138c0-5.523 10.637-10 16.16-10h20.5l3.533 6.533 35.308 35.569 6.659 3.398v47.5c0 5.523-4.477 15.521-10 15.521z" fill="#ffd05b"/><path d="m98.5 292.5c-1.657 0-3-1.343-3-3v-90h-10c-5.523 0-10 4.477-10 10v93c0 5.523 4.477 10 10 10h66c5.523 0 10-4.477 10-10v-10z" fill="#ffc244"/><path d="m161.5 245h-35.5c-5.523 0-10-4.477-10-10v-35.5z" fill="#ffe077"/></g><g><path d="m256 7.5c-63.363 0-121.188 23.716-165.082 62.756 0 0-15.936 16.954-23.663 26.127-36.413 43.23-53.872 98.672-53.872 159.617 0 137.24 105.377 243.426 242.617 243.426 61.571 0 117.545-17.636 160.957-54.723 4.542-3.881 9.311-7.606 13.562-11.799 45.672-45.062 73.981-107.678 73.981-176.904 0-137.24-111.26-248.5-248.5-248.5zm0 467c-120.67 0-218.5-97.83-218.5-218.5s97.83-218.5 218.5-218.5 218.5 97.83 218.5 218.5-97.83 218.5-218.5 218.5z" fill="#91dafa"/><path d="m431.98 431.45c-44.99 45.12-107.22 73.05-175.98 73.05-137.24 0-248.5-111.26-248.5-248.5 0-75.36 33.55-142.89 86.52-188.45-44.81 44.96-72.52 106.97-72.52 175.45 0 137.24 111.26 248.5 248.5 248.5 61.88 0 118.47-22.62 161.98-60.05z" fill="#75cff9"/></g><g><path d="m281 256c0-13.807-11.193-25-25-25-3.262 0-6.377.625-9.234 1.761-9.236 3.673-12.703 21.386-12.703 23.239 0 13.807 8.129 22.319 21.936 22.319 1.532 0 19.562-3.849 23.236-13.086 1.137-2.856 1.765-5.971 1.765-9.233z" fill="#91dafa"/><path d="m270 267c-13.807 0-25-11.193-25-25 0-3.262.63-6.375 1.766-9.232-9.235 3.673-15.766 12.687-15.766 23.232 0 13.807 11.193 25 25 25 10.545 0 19.562-6.531 23.236-15.766-2.858 1.136-5.974 1.766-9.236 1.766z" fill="#75cff9"/></g></g><g><path d="m437.02 74.98c-48.353-48.351-112.64-74.98-181.02-74.98s-132.667 26.629-181.02 74.98c-48.351 48.352-74.98 112.64-74.98 181.02 0 8.558.427 17.188 1.27 25.648.41 4.121 4.064 7.145 8.206 6.72 4.121-.41 7.13-4.084 6.72-8.206-.794-7.969-1.196-16.099-1.196-24.162 0-132.888 108.112-241 241-241s241 108.112 241 241-108.112 241-241 241c-111.318 0-207.569-75.398-234.063-183.355-.987-4.022-5.055-6.487-9.071-5.496-4.023.987-6.484 5.049-5.497 9.072 13.41 54.642 45.194 104.12 89.497 139.321 45.661 36.281 100.689 55.458 159.134 55.458 68.38 0 132.667-26.629 181.02-74.98 48.351-48.353 74.98-112.64 74.98-181.02s-26.629-132.668-74.98-181.02z"/><path d="m263.237 30.114c-2.403-.076-4.838-.114-7.237-.114-60.366 0-117.12 23.508-159.806 66.194s-66.194 99.44-66.194 159.806 23.508 117.12 66.194 159.806 99.44 66.194 159.806 66.194c49.835 0 97.091-15.901 136.659-45.984 38.289-29.111 66.787-70.428 80.244-116.34 1.165-3.975-1.113-8.142-5.088-9.307-3.974-1.161-8.141 1.113-9.307 5.088-4.061 13.855-9.501 27.059-16.139 39.484l-18.079-10.438c-3.589-2.071-8.175-.844-10.245 2.745-2.071 3.587-.842 8.174 2.745 10.245l18.033 10.411c-17.094 27.119-40.137 49.899-67.015 66.753l-10.313-17.862c-2.071-3.588-6.66-4.814-10.245-2.745-3.587 2.071-4.816 6.658-2.745 10.245l10.323 17.88c-29.835 15.908-63.629 24.825-98.828 24.825-35.724 0-69.395-8.936-98.917-24.672l10.412-18.033c2.071-3.587.842-8.174-2.745-10.245-3.586-2.07-8.175-.843-10.245 2.745l-10.399 18.011c-27.022-16.971-49.941-39.89-66.912-66.912l18.011-10.399c3.587-2.071 4.816-6.658 2.745-10.245-2.072-3.588-6.659-4.814-10.245-2.745l-18.033 10.412c-15.736-29.522-24.672-63.193-24.672-98.917s8.936-69.395 24.672-98.917l18.033 10.412c1.181.682 2.471 1.006 3.743 1.006 2.592 0 5.113-1.345 6.502-3.751 2.071-3.587.842-8.174-2.745-10.245l-18.011-10.399c16.971-27.022 39.89-49.941 66.912-66.912l10.401 18.014c1.39 2.406 3.91 3.751 6.502 3.751 1.272 0 2.562-.324 3.743-1.006 3.587-2.071 4.816-6.658 2.745-10.245l-10.414-18.036c29.522-15.736 63.193-24.672 98.917-24.672 2.242 0 4.519.036 6.765.106 4.165.14 7.603-3.119 7.732-7.26.131-4.14-3.12-7.602-7.26-7.732z"/><path d="m471.888 290.712c.314.039.627.059.937.059 3.729 0 6.96-2.778 7.433-6.574 1.156-9.29 1.742-18.776 1.742-28.197 0-108.033-76.859-201.341-182.754-221.865-4.067-.783-8.001 1.87-8.79 5.937-.788 4.066 1.87 8.002 5.937 8.79 20.875 4.046 40.534 11.132 58.572 20.728l-10.461 18.119c-2.071 3.587-.842 8.174 2.745 10.245 1.181.682 2.471 1.006 3.743 1.006 2.592 0 5.113-1.345 6.502-3.751l10.456-18.109c27.154 17.041 49.996 40.04 66.877 66.996l-18.035 10.412c-3.587 2.071-4.816 6.658-2.745 10.245 1.39 2.406 3.91 3.751 6.502 3.751 1.272 0 2.562-.324 3.743-1.006l18.037-10.413c15.794 29.704 24.671 63.457 24.671 98.915 0 8.803-.548 17.666-1.628 26.343-.512 4.11 2.405 7.857 6.516 8.369z"/><path d="m268.5 100c0 14.619 8.472 26.971 20 30.78v43.72c0 4.143 3.357 7.5 7.5 7.5s7.5-3.357 7.5-7.5v-43.72c11.528-3.81 20-16.161 20-30.78 0-17.645-12.337-32-27.5-32s-27.5 14.355-27.5 32zm27.5-17c6.775 0 12.5 7.785 12.5 17s-5.725 17-12.5 17-12.5-7.785-12.5-17 5.725-17 12.5-17z"/><path d="m196 68.333c-4.143 0-7.5 3.357-7.5 7.5v28.667c0 14.32 11.005 26.113 25 27.381v42.619c0 4.143 3.357 7.5 7.5 7.5s7.5-3.357 7.5-7.5v-42.619c13.995-1.268 25-13.061 25-27.381v-28.667c0-4.143-3.357-7.5-7.5-7.5s-7.5 3.357-7.5 7.5v28.667c0 6.037-4.301 11.087-10 12.248v-40.915c0-4.143-3.357-7.5-7.5-7.5s-7.5 3.357-7.5 7.5v40.915c-5.699-1.161-10-6.211-10-12.248v-28.667c0-4.143-3.357-7.5-7.5-7.5z"/><path d="m199 440h114c9.649 0 17.5-7.851 17.5-17.5v-55c0-9.649-7.851-17.5-17.5-17.5h-7.5v-4c0-4.143-3.357-7.5-7.5-7.5h-22c-7.872 0-14.982 3.324-20 8.644-5.018-5.319-12.128-8.644-20-8.644h-22c-4.143 0-7.5 3.357-7.5 7.5v4h-7.5c-9.649 0-17.5 7.851-17.5 17.5v55c0 9.649 7.851 17.5 17.5 17.5zm114-75c1.379 0 2.5 1.121 2.5 2.5v55c0 1.379-1.121 2.5-2.5 2.5h-49.475c.265-6.384 5.526-11.5 11.975-11.5h22.5c4.143 0 7.5-3.357 7.5-7.5v-41zm-37-11.5h14.5v45h-15c-4.308 0-8.383 1.014-12 2.816v-35.316c0-6.893 5.607-12.5 12.5-12.5zm-54.5 0h14.5c6.893 0 12.5 5.607 12.5 12.5v35.316c-3.617-1.802-7.692-2.816-12-2.816h-15zm-25 14c0-1.379 1.121-2.5 2.5-2.5h7.5v41c0 4.143 3.357 7.5 7.5 7.5h22.5c6.448 0 11.71 5.116 11.975 11.5h-49.475c-1.379 0-2.5-1.121-2.5-2.5z"/><path d="m412.471 262.011c3.306 3.305 7.7 5.125 12.375 5.125s9.069-1.82 12.375-5.126l5.656-5.656c3.305-3.306 5.125-7.7 5.125-12.375 0-4.674-1.82-9.068-5.125-12.374l-34.648-34.648c-3.306-3.305-7.7-5.125-12.374-5.125-4.675 0-9.069 1.82-12.375 5.125l-5.657 5.657c-3.305 3.306-5.125 7.7-5.125 12.375 0 4.674 1.82 9.068 5.125 12.374l2.121 2.121-22.626 22.626-2.121-2.121c-6.824-6.822-17.926-6.822-24.75 0l-5.657 5.657c-3.305 3.306-5.125 7.7-5.125 12.375 0 4.674 1.82 9.068 5.125 12.374l34.648 34.648c3.306 3.305 7.7 5.125 12.375 5.125s9.069-1.82 12.375-5.126l5.656-5.656c3.305-3.306 5.125-7.7 5.125-12.375 0-4.674-1.82-9.068-5.125-12.374l-2.121-2.121 22.627-22.627zm-24.041-48.79 5.657-5.657c.637-.638 1.381-.732 1.768-.732.386 0 1.13.095 1.767.732l34.648 34.648c.638.637.732 1.381.732 1.767 0 .387-.095 1.131-.732 1.769l-5.656 5.656c-.637.638-1.381.732-1.768.732s-1.131-.095-1.768-.732l-34.648-34.648c-.638-.637-.732-1.381-.732-1.767-.001-.387.094-1.132.732-1.768zm-9.194 85.559-5.656 5.656c-.637.638-1.381.732-1.768.732s-1.131-.095-1.768-.732l-34.648-34.648c-.638-.637-.732-1.381-.732-1.767 0-.387.095-1.131.732-1.768l5.657-5.657c.637-.638 1.381-.732 1.768-.732s1.131.095 1.768.732l34.647 34.647v.001c.638.637.732 1.381.732 1.767.001.387-.094 1.132-.732 1.769zm-2.121-26.871-9.191-9.191 22.627-22.627 9.191 9.191z"/><path d="m166.804 239.696-45.5-45.5c-.974-.907-2.805-2.231-5.304-2.196h-30.5c-9.649 0-17.5 7.851-17.5 17.5v93c0 9.649 7.851 17.5 17.5 17.5h66c9.649 0 17.5-7.851 17.5-17.5v-57.466c0-1.971-.868-4.145-2.196-5.338zm-43.304-22.09 19.894 19.894h-17.394c-1.379 0-2.5-1.121-2.5-2.5zm28 87.394h-66c-1.379 0-2.5-1.121-2.5-2.5v-93c0-1.379 1.121-2.5 2.5-2.5h23v28c0 9.649 7.851 17.5 17.5 17.5h28v50c0 1.379-1.121 2.5-2.5 2.5z"/><path d="m224.268 249h-27.768c-4.143 0-7.5 3.357-7.5 7.5s3.357 7.5 7.5 7.5h27.999c3.573 14.065 16.34 24.5 31.501 24.5 17.921 0 32.5-14.579 32.5-32.5s-14.579-32.5-32.5-32.5c-6.7 0-12.933 2.039-18.111 5.528l-83.562-70.268c-3.17-2.666-7.901-2.256-10.567.913-2.666 3.17-2.257 7.901.913 10.567l83.023 69.815c-1.56 2.758-2.727 5.764-3.428 8.945zm49.232 7c0 9.649-7.851 17.5-17.5 17.5s-17.5-7.851-17.5-17.5 7.851-17.5 17.5-17.5 17.5 7.851 17.5 17.5z"/></g></g></svg>