<svg id="Filled_stroke_cutting_ex_Revise" height="512" viewBox="0 0 512 512" width="512" xmlns="http://www.w3.org/2000/svg" data-name="Filled stroke cutting ex Revise"><g><path d="m40 24h344v464h-344z" fill="#f9f9fa"/><path d="m96 352h80v80h-80z" fill="#faa231"/><path d="m96 208h80v80h-80z" fill="#faa231"/><path d="m384 496h-344a8 8 0 0 1 -8-8v-368h16v360h328v-448h-328v72h-16v-80a8 8 0 0 1 8-8h344a8 8 0 0 1 8 8v464a8 8 0 0 1 -8 8z"/><path d="m136 72h-64v16h24v64h16v-64h24z"/><path d="m352 72h-64v16h24v64h16v-64h24z"/><path d="m200 88v-16h-40a8 8 0 0 0 -8 8v64a8 8 0 0 0 8 8h40v-16h-32v-16h32v-16h-32v-16z"/><path d="m264 152h-48v-16h40v-16h-32a8 8 0 0 1 -8-8v-32a8 8 0 0 1 8-8h48v16h-40v16h32a8 8 0 0 1 8 8v32a8 8 0 0 1 -8 8z"/><g><g><path d="m144 272a8 8 0 0 1 -5.657-2.343l-24-24 11.314-11.314 17.891 17.891 42.378-49.44 12.148 10.412-48 56a8 8 0 0 1 -5.767 2.788c-.102.006-.207.006-.307.006z"/><path d="m176 296h-80a8 8 0 0 1 -8-8v-80a8 8 0 0 1 8-8h56v16h-48v64h64v-16h16v24a8 8 0 0 1 -8 8z"/></g><g><path d="m144 416a8 8 0 0 1 -5.657-2.343l-24-24 11.314-11.314 17.891 17.891 42.378-49.44 12.148 10.412-48 56a8 8 0 0 1 -5.767 2.788c-.102.006-.207.006-.307.006z"/><path d="m176 440h-80a8 8 0 0 1 -8-8v-80a8 8 0 0 1 8-8h56v16h-48v64h64v-16h16v24a8 8 0 0 1 -8 8z"/></g><path d="m216 200h120v16h-120z"/><path d="m216 240h120v16h-120z"/><path d="m216 280h120v16h-120z"/><path d="m216 344h120v16h-120z"/><path d="m216 384h120v16h-120z"/><path d="m216 424h120v16h-120z"/></g><g><path d="m472 392v8l-16 64h-16l-16-64v-8z" fill="#faa231"/><path d="m424 120h48v272h-48z" fill="#4d4d4d"/><path d="m448 48a24 24 0 0 1 24 24v48a0 0 0 0 1 0 0h-48a0 0 0 0 1 0 0v-48a24 24 0 0 1 24-24z" fill="#faa231"/><path d="m448 40a32.036 32.036 0 0 0 -32 32v328a7.977 7.977 0 0 0 .239 1.94l16 64a8 8 0 0 0 7.761 6.06h16a8 8 0 0 0 7.761-6.06l16-64a7.977 7.977 0 0 0 .239-1.94v-40h-16v24h-32v-256h32v216h16v-272a32.036 32.036 0 0 0 -32-32zm15.754 360-14 56h-3.508l-14-56zm-31.754-288v-40a16 16 0 0 1 32 0v40z"/></g></g></svg>