<svg height="512" viewBox="0 0 64 64" width="512" xmlns="http://www.w3.org/2000/svg"><g id="Filled_Outline" data-name="Filled Outline"><path d="m53 24.267c0 18.366-21 36.733-21 36.733s-21-18.367-21-36.733a21 21 0 1 1 42 0z" fill="#ff9800"/><circle cx="32" cy="24" fill="#eee" r="17"/><path d="m32 2a22.16 22.16 0 0 0 -22 22.267c0 7.841 3.6 16.542 10.7 25.86a86.428 86.428 0 0 0 10.642 11.626 1 1 0 0 0 1.316 0 86.428 86.428 0 0 0 10.642-11.626c7.1-9.318 10.7-18.019 10.7-25.86a22.16 22.16 0 0 0 -22-22.267zm0 57.646c-3.527-3.288-20-19.5-20-35.379a20 20 0 1 1 40 0c0 15.88-16.473 32.091-20 35.379z"/><path d="m32 6a18 18 0 1 0 18 18 18.021 18.021 0 0 0 -18-18zm0 34a16 16 0 1 1 16-16 16.019 16.019 0 0 1 -16 16z"/><path d="m24 21h16v9h-16z" fill="#ff9800"/><path d="m36 11h-8a5.006 5.006 0 0 0 -5 5v14a1 1 0 0 0 1 1h2.382l-2.277 4.553 1.79.894.723-1.447h10.764l.723 1.447 1.79-.894-2.277-4.553h2.382a1 1 0 0 0 1-1v-14a5.006 5.006 0 0 0 -5-5zm-8.382 22 1-2h6.764l1 2zm11.382-4h-14v-7h14zm0-9h-14v-4a3 3 0 0 1 3-3h8a3 3 0 0 1 3 3z"/><circle cx="35.5" cy="25.5" r="1.5"/><circle cx="28.5" cy="25.5" r="1.5"/></g></svg>